<?xml version="1.0" encoding="UTF-8"?><svg id="d" xmlns="http://www.w3.org/2000/svg" xmlns:xlink="http://www.w3.org/1999/xlink" viewBox="0 0 510 148"><defs><linearGradient id="e" x1="14.35" y1="130.29" x2="50.91" y2="116.98" gradientTransform="matrix(1, 0, 0, 1, 0, 0)" gradientUnits="userSpaceOnUse"><stop offset="0" stop-color="#2b4985"/><stop offset=".04" stop-color="#2f4a87"/><stop offset=".48" stop-color="#5f5aa7"/><stop offset=".81" stop-color="#7c64ba"/><stop offset="1" stop-color="#8868c2"/></linearGradient><linearGradient id="f" x1="19.43" y1="106.87" x2="41.94" y2="98.68" xlink:href="#e"/><linearGradient id="g" x1="42.61" y1="130.04" x2="65.09" y2="121.85" xlink:href="#e"/><linearGradient id="h" x1="30.06" y1="96.72" x2="165.21" y2="47.53" gradientTransform="matrix(1, 0, 0, 1, 0, 0)" gradientUnits="userSpaceOnUse"><stop offset="0" stop-color="#2b4985"/><stop offset=".04" stop-color="#2f4a87"/><stop offset=".48" stop-color="#5f5aa7"/><stop offset=".81" stop-color="#7c64ba"/><stop offset="1" stop-color="#8868c2"/></linearGradient><linearGradient id="i" x1="147.38" y1="105" x2="476.61" y2="-14.83" gradientTransform="matrix(1, 0, 0, 1, 0, 0)" gradientUnits="userSpaceOnUse"><stop offset="0" stop-color="#8868c2"/><stop offset=".2" stop-color="#9263be"/><stop offset=".55" stop-color="#af57b5"/><stop offset="1" stop-color="#de45a7"/></linearGradient><linearGradient id="j" x1="155.75" y1="127.99" x2="484.98" y2="8.16" xlink:href="#i"/><linearGradient id="k" x1="165.76" y1="155.48" x2="494.99" y2="35.65" xlink:href="#i"/><linearGradient id="l" x1="175.57" y1="182.43" x2="504.8" y2="62.6" xlink:href="#i"/></defs><g><g><path d="M47.88,113.82c.95-1.35,1.09-2.77,.27-4.23-.82-1.47-2.13-2.06-3.77-1.93-1.13,.09-1.97,.74-2.75,1.52-7.53,7.55-15.07,15.09-22.62,22.62-1.25,1.24-2.64,2.47-2.41,4.41,.2,1.73,1.9,3.45,3.68,3.51,1.51,.05,2.84-1.04,3.84-2.05,7.63-7.63,15.27-15.26,22.9-22.9,.3-.3,.62-.6,.87-.95Z" style="fill:url(#e);"/><path d="M20.78,110.52c.49,1.06,1.37,1.96,2.51,2.28,1.32,.37,2.79,.01,3.78-.95,4.28-4.18,8.49-8.43,12.69-12.68,1.21-1.22,1.44-2.96,.73-4.42-1.2-2.48-4.3-2.92-6.38-.86-3.73,3.69-7.42,7.43-11.15,11.13-1.39,1.37-3.14,3.02-2.33,5.16,.04,.11,.09,.23,.14,.34Z" style="fill:url(#f);"/><path d="M61.73,116.09c-1.59-.63-3.07-.38-4.28,.82-4.21,4.18-8.41,8.37-12.58,12.58-1.58,1.6-1.58,3.89-.11,5.44,1.5,1.57,3.9,1.65,5.54,.04,4.23-4.16,8.4-8.37,12.59-12.57,.76-.76,1.15-1.69,1.17-2.47,0-1.85-.89-3.27-2.33-3.84Z" style="fill:url(#g);"/></g><path d="M152.41,13.58c-.23-4.63-3.93-8.79-8.58-9.19-6.39-.56-12.96-.27-19.33,.33-5.22,.49-10.33,1.31-15.38,2.75s-10.09,2.97-14.46,5.47c-9.44,4.46-17.98,10.66-25.32,18.07-.27,.27-.54,.54-.8,.82-2.04,2.1-4.06,4.22-5.91,6.49-.48,.58-.99,.81-1.73,.87-6.18,.46-12.35,.94-18.52,1.46-3.04,.26-5.56,1.63-7.25,4.14-3.66,5.43-7.26,10.9-10.87,16.37-.58,.87-1.16,1.75-1.74,2.62-.75,1.14-1.23,2.44-1.43,3.8s-.42,2.98-.05,4.32c.27,.96,.89,1.79,1.66,2.43,1,.83,2.25,1.45,3.53,1.68,2.83,.52,5.69,.89,8.53,1.34,2.62,.41,5.24,.82,7.81,1.22,.04,.22,.07,.31,.07,.39-.01,.21-.07,.43-.06,.64,.27,18.93,18.55,33.08,32,34.6,1.16,.13,2.29-.24,3.45-.16,.08,.35,.16,.64,.2,.94,.78,5.01,1.54,10.03,2.33,15.03,.86,5.38,6.4,7.94,10.95,4.98,6.7-4.35,13.36-8.78,20-13.22,2.69-1.8,4.22-4.37,4.49-7.61,.45-5.44,.91-10.89,1.25-16.34,.13-2.05,.48-3.78,2.4-5,1.25-.8,2.26-1.98,3.36-3,22.19-20.64,30.87-46.49,29.38-76.24Zm-43.78,50.32c-9.15,0-16.56-7.41-16.56-16.56s7.41-16.56,16.56-16.56,16.56,7.41,16.56,16.56-7.41,16.56-16.56,16.56Z" style="fill:url(#h);"/></g><g><path d="M220.98,49.9c-3.02-3.02-6.56-5.41-10.61-7.15-4.05-1.74-8.38-2.62-12.99-2.62s-8.94,.87-12.99,2.62c-4.05,1.74-7.58,4.13-10.58,7.15-3,3.02-5.38,6.56-7.12,10.61-1.74,4.05-2.62,8.38-2.62,12.99v49.98h16.62v-16.68h33.36v16.68h16.68v-49.98c0-4.61-.87-8.94-2.62-12.99-1.74-4.05-4.13-7.58-7.15-10.61Zm-6.92,40.28h-33.36v-16.68c0-2.29,.44-4.45,1.31-6.48,.87-2.03,2.06-3.81,3.57-5.32,1.51-1.51,3.28-2.7,5.32-3.57,2.03-.87,4.19-1.31,6.48-1.31s4.45,.44,6.48,1.31c2.03,.87,3.81,2.06,5.32,3.57,1.51,1.51,2.7,3.28,3.57,5.32,.87,2.03,1.31,4.19,1.31,6.48v16.68Z" style="fill:#de45a7;"/><path d="M220.98,49.9c-3.02-3.02-6.56-5.41-10.61-7.15-4.05-1.74-8.38-2.62-12.99-2.62s-8.94,.87-12.99,2.62c-4.05,1.74-7.58,4.13-10.58,7.15-3,3.02-5.38,6.56-7.12,10.61-1.74,4.05-2.62,8.38-2.62,12.99v49.98h16.62v-16.68h33.36v16.68h16.68v-49.98c0-4.61-.87-8.94-2.62-12.99-1.74-4.05-4.13-7.58-7.15-10.61Zm-6.92,40.28h-33.36v-16.68c0-2.29,.44-4.45,1.31-6.48,.87-2.03,2.06-3.81,3.57-5.32,1.51-1.51,3.28-2.7,5.32-3.57,2.03-.87,4.19-1.31,6.48-1.31s4.45,.44,6.48,1.31c2.03,.87,3.81,2.06,5.32,3.57,1.51,1.51,2.7,3.28,3.57,5.32,.87,2.03,1.31,4.19,1.31,6.48v16.68Z" style="fill:url(#i);"/><path d="M262.75,63.53c2.4-2.38,5.2-4.27,8.4-5.67,3.2-1.39,6.62-2.09,10.26-2.09s7.11,.73,10.4,2.18c3.29,1.45,6.2,3.46,8.72,6.02l8.72-14.53c-3.87-3.29-8.19-5.82-12.96-7.58-4.77-1.76-9.73-2.64-14.88-2.64-3.95,0-7.76,.51-11.42,1.54-3.66,1.03-7.08,2.47-10.26,4.33-3.18,1.86-6.08,4.1-8.72,6.71-2.64,2.62-4.88,5.52-6.74,8.72-1.86,3.2-3.3,6.62-4.33,10.26-1.03,3.64-1.54,7.44-1.54,11.39s.51,7.77,1.54,11.45c1.03,3.68,2.47,7.12,4.33,10.32,1.86,3.2,4.11,6.1,6.74,8.72,2.63,2.62,5.54,4.86,8.72,6.74,3.18,1.88,6.6,3.33,10.26,4.36,3.66,1.03,7.47,1.54,11.42,1.54,5.15,0,10.11-.88,14.88-2.64,4.77-1.76,9.09-4.29,12.96-7.58v-32.9h-16.1v23.71c-1.78,.89-3.66,1.59-5.64,2.09-1.98,.5-4.01,.76-6.1,.76-3.64,0-7.06-.7-10.26-2.09-3.2-1.39-6-3.29-8.4-5.7-2.4-2.4-4.3-5.21-5.7-8.43-1.39-3.22-2.09-6.66-2.09-10.35s.7-7.06,2.09-10.26c1.39-3.2,3.29-5.99,5.7-8.37Z" style="fill:#de45a7;"/><path d="M262.75,63.53c2.4-2.38,5.2-4.27,8.4-5.67,3.2-1.39,6.62-2.09,10.26-2.09s7.11,.73,10.4,2.18c3.29,1.45,6.2,3.46,8.72,6.02l8.72-14.53c-3.87-3.29-8.19-5.82-12.96-7.58-4.77-1.76-9.73-2.64-14.88-2.64-3.95,0-7.76,.51-11.42,1.54-3.66,1.03-7.08,2.47-10.26,4.33-3.18,1.86-6.08,4.1-8.72,6.71-2.64,2.62-4.88,5.52-6.74,8.72-1.86,3.2-3.3,6.62-4.33,10.26-1.03,3.64-1.54,7.44-1.54,11.39s.51,7.77,1.54,11.45c1.03,3.68,2.47,7.12,4.33,10.32,1.86,3.2,4.11,6.1,6.74,8.72,2.63,2.62,5.54,4.86,8.72,6.74,3.18,1.88,6.6,3.33,10.26,4.36,3.66,1.03,7.47,1.54,11.42,1.54,5.15,0,10.11-.88,14.88-2.64,4.77-1.76,9.09-4.29,12.96-7.58v-32.9h-16.1v23.71c-1.78,.89-3.66,1.59-5.64,2.09-1.98,.5-4.01,.76-6.1,.76-3.64,0-7.06-.7-10.26-2.09-3.2-1.39-6-3.29-8.4-5.7-2.4-2.4-4.3-5.21-5.7-8.43-1.39-3.22-2.09-6.66-2.09-10.35s.7-7.06,2.09-10.26c1.39-3.2,3.29-5.99,5.7-8.37Z" style="fill:url(#j);"/><path d="M378.06,49.9c-3.02-3.02-6.56-5.41-10.61-7.15-4.05-1.74-8.38-2.62-12.99-2.62s-8.94,.87-12.99,2.62c-4.05,1.74-7.58,4.13-10.58,7.15-3,3.02-5.38,6.56-7.12,10.61-1.74,4.05-2.62,8.38-2.62,12.99v49.98h16.62v-16.68h33.36v16.68h16.68v-49.98c0-4.61-.87-8.94-2.62-12.99-1.74-4.05-4.13-7.58-7.15-10.61Zm-6.92,40.28h-33.36v-16.68c0-2.29,.44-4.45,1.31-6.48,.87-2.03,2.06-3.81,3.57-5.32,1.51-1.51,3.28-2.7,5.32-3.57,2.03-.87,4.19-1.31,6.48-1.31s4.45,.44,6.48,1.31c2.03,.87,3.81,2.06,5.32,3.57,1.51,1.51,2.7,3.28,3.57,5.32,.87,2.03,1.31,4.19,1.31,6.48v16.68Z" style="fill:#de45a7;"/><path d="M378.06,49.9c-3.02-3.02-6.56-5.41-10.61-7.15-4.05-1.74-8.38-2.62-12.99-2.62s-8.94,.87-12.99,2.62c-4.05,1.74-7.58,4.13-10.58,7.15-3,3.02-5.38,6.56-7.12,10.61-1.74,4.05-2.62,8.38-2.62,12.99v49.98h16.62v-16.68h33.36v16.68h16.68v-49.98c0-4.61-.87-8.94-2.62-12.99-1.74-4.05-4.13-7.58-7.15-10.61Zm-6.92,40.28h-33.36v-16.68c0-2.29,.44-4.45,1.31-6.48,.87-2.03,2.06-3.81,3.57-5.32,1.51-1.51,3.28-2.7,5.32-3.57,2.03-.87,4.19-1.31,6.48-1.31s4.45,.44,6.48,1.31c2.03,.87,3.81,2.06,5.32,3.57,1.51,1.51,2.7,3.28,3.57,5.32,.87,2.03,1.31,4.19,1.31,6.48v16.68Z" style="fill:url(#k);"/><path d="M477.71,46.27c-2.27-2.27-4.92-4.05-7.96-5.35-3.04-1.3-6.29-1.95-9.74-1.95-3.1,0-6.07,.55-8.92,1.66-2.85,1.1-5.42,2.7-7.7,4.79-2.29-2.09-4.86-3.69-7.73-4.79-2.87-1.1-5.85-1.66-8.95-1.66-3.45,0-6.69,.65-9.74,1.95-3.04,1.3-5.7,3.08-7.96,5.35-2.27,2.27-4.05,4.92-5.35,7.96-1.3,3.04-1.95,6.29-1.95,9.74v59.52h16.68V63.97c0-1.16,.21-2.25,.64-3.25,.43-1.01,1.02-1.89,1.77-2.64,.76-.76,1.64-1.35,2.64-1.77,1.01-.43,2.09-.64,3.25-.64s2.25,.21,3.25,.64c1.01,.43,1.89,1.02,2.64,1.77,.76,.76,1.35,1.64,1.77,2.64,.43,1.01,.64,2.09,.64,3.25v59.52h16.68V63.97c0-1.16,.21-2.25,.64-3.25,.43-1.01,1.02-1.89,1.77-2.64,.76-.76,1.64-1.35,2.64-1.77,1.01-.43,2.09-.64,3.25-.64s2.25,.21,3.25,.64c1.01,.43,1.89,1.02,2.64,1.77,.76,.76,1.36,1.64,1.8,2.64,.45,1.01,.67,2.09,.67,3.25v59.52h16.62V63.97c0-3.45-.65-6.69-1.95-9.74-1.3-3.04-3.08-5.7-5.35-7.96Z" style="fill:#de45a7;"/><path d="M477.71,46.27c-2.27-2.27-4.92-4.05-7.96-5.35-3.04-1.3-6.29-1.95-9.74-1.95-3.1,0-6.07,.55-8.92,1.66-2.85,1.1-5.42,2.7-7.7,4.79-2.29-2.09-4.86-3.69-7.73-4.79-2.87-1.1-5.85-1.66-8.95-1.66-3.45,0-6.69,.65-9.74,1.95-3.04,1.3-5.7,3.08-7.96,5.35-2.27,2.27-4.05,4.92-5.35,7.96-1.3,3.04-1.95,6.29-1.95,9.74v59.52h16.68V63.97c0-1.16,.21-2.25,.64-3.25,.43-1.01,1.02-1.89,1.77-2.64,.76-.76,1.64-1.35,2.64-1.77,1.01-.43,2.09-.64,3.25-.64s2.25,.21,3.25,.64c1.01,.43,1.89,1.02,2.64,1.77,.76,.76,1.35,1.64,1.77,2.64,.43,1.01,.64,2.09,.64,3.25v59.52h16.68V63.97c0-1.16,.21-2.25,.64-3.25,.43-1.01,1.02-1.89,1.77-2.64,.76-.76,1.64-1.35,2.64-1.77,1.01-.43,2.09-.64,3.25-.64s2.25,.21,3.25,.64c1.01,.43,1.89,1.02,2.64,1.77,.76,.76,1.36,1.64,1.8,2.64,.45,1.01,.67,2.09,.67,3.25v59.52h16.62V63.97c0-3.45-.65-6.69-1.95-9.74-1.3-3.04-3.08-5.7-5.35-7.96Z" style="fill:url(#l);"/></g></svg>